<?xml version="1.0" encoding="utf-8"?>
<svg viewBox="433.06524658203125 475.02777099609375 50.77984619140625 9.3707275390625" width="50.77984619140625" height="9.3707275390625" xmlns="http://www.w3.org/2000/svg"><path fill="currentColor" d="M626.4,915c0.3,1.3,0.9,2.6,1.8,3.7c0.9,1.1,2,1.9,3.2,2.6c2.4,1.3,5,1.9,7.7,2.3c2.6,0.4,5.3,0.5,7.9,0.5&#10;&#9;&#9;&#9;c5.3,0,10.5-0.5,15.8-1.1c5.2-0.6,10.4-1.5,15.6-2.2c5.2-0.8,10.4-1.6,15.6-2.1c2.6-0.3,5.2-0.5,7.8-0.5c2.6-0.1,5.2,0,7.8,0.3&#10;&#9;&#9;&#9;c2.6,0.3,5.2,0.9,7.5,2c2.4,1.1,4.5,2.7,6,4.8c-0.7-1.1-1.6-2.1-2.6-3c-1-0.9-2.1-1.6-3.3-2.2c-2.4-1.2-5-1.8-7.6-2.2&#10;&#9;&#9;&#9;c-2.6-0.4-5.3-0.5-7.9-0.5c-2.6,0-5.3,0.2-7.9,0.4c-10.5,0.9-20.8,2.9-31.2,4.1c-5.2,0.6-10.4,1.1-15.6,1.1&#10;&#9;&#9;&#9;c-2.6,0-5.2-0.1-7.8-0.4c-1.3-0.2-2.6-0.4-3.8-0.7c-1.2-0.3-2.5-0.8-3.6-1.4c-1.1-0.6-2.1-1.3-3-2.3c-0.8-1-1.4-2.1-1.7-3.3&#10;&#9;&#9;&#9;c-0.2-0.6-0.3-1.2-0.4-1.9c-0.1-0.6,0-1.2,0.1-1.8c0.3-1.2,1.1-2.3,2.1-2.8c1.1-0.6,2.4-0.7,3.7-0.5c0.6,0.1,1.2,0.3,1.7,0.7&#10;&#9;&#9;&#9;c0.5,0.4,0.9,0.9,1.2,1.4c0.5,1.2,0.3,2.6-0.5,3.6c-0.4,0.5-1,0.8-1.6,1c-0.6,0.1-1.3,0.1-1.9-0.1c0.6,0.2,1.3,0.3,2,0.2&#10;&#9;&#9;&#9;c0.7-0.1,1.3-0.4,1.7-0.9c0.9-1,1.2-2.5,0.7-3.8c-0.2-0.6-0.7-1.2-1.2-1.6c-0.6-0.4-1.2-0.7-1.9-0.8c-0.7-0.1-1.3-0.2-2-0.1&#10;&#9;&#9;&#9;c-0.7,0.1-1.4,0.2-2,0.6c-0.6,0.3-1.2,0.8-1.6,1.3c-0.4,0.6-0.7,1.2-0.9,1.9c-0.2,0.7-0.2,1.4-0.2,2.1&#10;&#9;&#9;&#9;C626.2,913.6,626.3,914.3,626.4,915z" transform="matrix(0.5235042572021484, 0, 0, 0.5235042572021484, 105.29924774169916, 0.000004561539753922261)"/></svg>